# xmcd
#
# Track frame offsets: 
#        150
#        14945
#        32673
#        51340
#        64248
#        82658
#        98764
#        108985
#        148477
#        163275
#        183925
#
# Disc length: 2728 seconds
#
# Revision: 0
# Processed by: cddbd v1.5.2PL0 Copyright (c) Steve Scherf et al.
# Submitted via: ExactAudioCopy v0.99pb5
#
DISCID=9a0aa60b
DTITLE=Ben Rice - Screamin Train
DYEAR=2006
DGENRE=Blues
TTITLE0=Screamin Train
TTITLE1=Big Evil Woman
TTITLE2=Pain
TTITLE3=Love Me Baby
TTITLE4=You Were Wrong
TTITLE5=Shake It
TTITLE6=Glass Turtle
TTITLE7=I Feel Loved
TTITLE8=Up Your Stairs
TTITLE9=I Saw the Devil
TTITLE10=St. James Infirmary
EXTD=
EXTT0=
EXTT1=
EXTT2=
EXTT3=
EXTT4=
EXTT5=
EXTT6=
EXTT7=
EXTT8=
EXTT9=
EXTT10=
PLAYORDER=
